<svg width="40" height="40" viewBox="0 0 40 40" fill="none" xmlns="http://www.w3.org/2000/svg">
<circle cx="20" cy="20" r="20" fill="#ED6D05"/>
<mask id="mask0_3257_1427" style="mask-type:alpha" maskUnits="userSpaceOnUse" x="12" y="12" width="16" height="16">
<path d="M19.1079 27.0072C19.1122 27.5595 19.5633 28.0037 20.1156 27.9995C20.6679 27.9952 21.1121 27.5441 21.1079 26.9918L19.1079 27.0072ZM20.7017 12.2874C20.3082 11.8999 19.6751 11.9048 19.2875 12.2983L12.9728 18.7111C12.5853 19.1046 12.5902 19.7377 12.9837 20.1252C13.3772 20.5128 14.0104 20.5079 14.3979 20.1144L20.011 14.4141L25.7112 20.0272C26.1047 20.4147 26.7379 20.4098 27.1254 20.0163C27.5129 19.6228 27.508 18.9897 27.1145 18.6022L20.7017 12.2874ZM21.1079 26.9918L21.0001 12.9922L19.0001 13.0076L19.1079 27.0072L21.1079 26.9918Z" fill="#ED6D05"/>
</mask>
<g mask="url(#mask0_3257_1427)">
<rect x="7" y="3" width="25" height="35" fill="white"/>
</g>
</svg>
